# xmcd
#
# Track frame offsets: 
#        183
#        44610
#        49345
#        54558
#        57263
#        58660
#        61613
#        64358
#        73858
#        78783
#        103583
#        106850
#        131220
#        132695
#        135258
#        145395
#        150588
#        170408
#        177458
#        195220
#        201895
#        207903
#        213250
#        219183
#        230608
#        240208
#        264458
#        268620
#        274533
#
# Disc length: 3944 seconds
#
# Revision: 8
# Processed by: cddbd v1.5.2PL0 Copyright (c) Steve Scherf et al.
# Submitted via: ExactAudioCopy v0.99pb4
#
DISCID=b20f661d
DTITLE=Johann Sebastian Bach (1685 - 1750) - Matthäus-Passion [CD1]
DYEAR=1959
DGENRE=Classical
TTITLE0=No.1 Chorus I/II: "Kommt, ihr Töchter, helft mir klagen"
TTITLE1=No.2 Evangelist, Jesus: "Da Jesus diese Rede vollendet hatte"
TTITLE2=No.3 Choral: "Herzliebster Jesu, was hast du verbrochen"
TTITLE3=No.4a Evangelist: "Da versammelten sich die Hohenpriester"
TTITLE4=No.4b Chorus I/II: "Ja nicht auf das Fest"
TTITLE5=No.6 Evangelist: "Da nun Jesus war zu Bethanien"
TTITLE6=No.4d Chorus I: "Wozu dienet dieser Unrat"
TTITLE7=No.4e Evangelist, Jesus: "Da das Jesus merkete"
TTITLE8=No.5 Recitative (Alto): "Du lieber Heiland du"
TTITLE9=No.6 Aria (Alto): "Buss und Reu"
TTITLE10=No.7 Evangelist, Judas: "Da ging hin der Zwölfen einer"
TTITLE11=No.8 Aria (Soprano): "Blute nur, du liebes Herz"
TTITLE12=No.9a Evangelist:"Aber am ersten Tage der süssen Brot"
TTITLE13=No.9b Chorus I: "Wo willst du, dass wir dir bereiten"
TTITLE14=No.9c Evangelist, Jesus: "Er sprach: Gehet hin in die Stadt"
TTITLE15=No.10 Choral: "Ich bin's, ich sollte büssen"
TTITLE16=No.11 Evangelist, Jesus, Judas: "Er antwortete und sprach"
TTITLE17=No.12 Recitative (Soprano): "Wiewohl mein Herz in Tränen schw
TTITLE17=immt"
TTITLE18=No.13 Aria (Soprano): "Ich will dir mein Herz schenken"
TTITLE19=No.14 Evangelist, Jesus: "Und da sie den Lobgesang gesprochen
TTITLE19=hatten"
TTITLE20=No.15 Choral: "Erkenne mich, mein Hüter"
TTITLE21=No.16 Evangelist, Jesus, Petrus: "Petrus aber antwortete"
TTITLE22=No.17 Choral: "Ich will hier bei dir stehen"
TTITLE23=No.18 Evangelist, Jesus: "Da kam Jesus mit ihnen zu einem Hof
TTITLE23=e"
TTITLE24=No.19 Recitative (Tenor, Chorus II): "O Schmerz! hier zittert
TTITLE24=das gequälte Herz"
TTITLE25=No.26 Aria (Tenor): "Ich will bei meinem Jesu wachen" with Ch
TTITLE25=orus: "So schlafen unsre Sünden ein"
TTITLE26=No.21 Evangelist, Jesus: "Und ging hin ein wenig"
TTITLE27=No.22 Recitative (Bass): "Der Heiland fällt vor seinem Vater 
TTITLE27=nieder"
TTITLE28=No.23 Aria (Bass): "Gerne will ich mich bequemen"
EXTD=Year: 1959\n
EXTT0=
EXTT1=
EXTT2=
EXTT3=
EXTT4=
EXTT5=
EXTT6=
EXTT7=
EXTT8=
EXTT9=
EXTT10=
EXTT11=
EXTT12=
EXTT13=
EXTT14=
EXTT15=
EXTT16=
EXTT17=
EXTT18=
EXTT19=
EXTT20=
EXTT21=
EXTT22=
EXTT23=
EXTT24=
EXTT25=
EXTT26=
EXTT27=
EXTT28=
PLAYORDER=
